<?xml version="1.0" encoding="utf-8"?>
<!-- Generator: Adobe Illustrator 22.0.0, SVG Export Plug-In . SVG Version: 6.00 Build 0)  -->
<svg version="1.1" xmlns="http://www.w3.org/2000/svg" xmlns:xlink="http://www.w3.org/1999/xlink" x="0px" y="0px"
	 viewBox="0 0 1682.6 1639.7" style="enable-background:new 0 0 1682.6 1639.7;" xml:space="preserve">
<style type="text/css">
	.st0{fill:#FFFFFF;}
	.st1{fill:#31DD93;}
	.st2{fill:#DC0000;stroke:#FFFFFF;stroke-width:30;stroke-miterlimit:10;}
	.st3{fill:#DC0000;}
	.st4{fill:#12B5C6;}
	.st5{fill:#3F4658;}
	.st6{fill:#818899;}
	.st7{fill:#3C445A;}
	.st8{fill:#4D546D;}
	.st9{fill:#31DD93;stroke:#606060;stroke-width:4;stroke-miterlimit:10;}
	.st10{fill:url(#SVGID_1_);}
	.st11{fill:url(#SVGID_2_);}
	.st12{fill:url(#SVGID_3_);}
	.st13{fill:url(#SVGID_4_);}
	.st14{fill:url(#SVGID_5_);}
	.st15{fill:url(#SVGID_6_);}
	.st16{fill:url(#SVGID_7_);}
	.st17{fill:url(#SVGID_8_);}
	.st18{fill:url(#SVGID_9_);}
	.st19{fill:url(#SVGID_10_);}
	.st20{fill:url(#SVGID_11_);}
	.st21{fill:url(#SVGID_12_);}
	.st22{fill:url(#SVGID_13_);}
	.st23{fill:url(#SVGID_14_);}
	.st24{fill:url(#SVGID_15_);}
	.st25{fill:url(#SVGID_16_);}
	.st26{fill:url(#SVGID_17_);}
	.st27{fill:url(#SVGID_18_);}
	.st28{fill:url(#SVGID_19_);}
	.st29{fill:url(#SVGID_20_);}
	.st30{fill:url(#SVGID_21_);}
	.st31{fill:url(#SVGID_22_);}
	.st32{fill:url(#SVGID_23_);}
	.st33{fill:url(#SVGID_24_);}
	.st34{fill:url(#SVGID_25_);}
	.st35{fill:url(#SVGID_26_);}
	.st36{fill:url(#SVGID_27_);}
	.st37{fill:url(#SVGID_28_);}
	.st38{fill:url(#SVGID_29_);}
	.st39{fill:#00918E;}
	.st40{fill:url(#SVGID_30_);}
	.st41{fill:url(#SVGID_31_);}
	.st42{fill:url(#SVGID_32_);}
	.st43{fill:url(#SVGID_33_);}
	.st44{fill:url(#SVGID_34_);}
	.st45{fill:url(#SVGID_35_);}
	.st46{fill:url(#SVGID_36_);}
	.st47{fill:url(#SVGID_37_);}
	.st48{fill:none;stroke:#FFFFFF;stroke-width:1.7003;stroke-miterlimit:10;}
	.st49{fill:url(#SVGID_38_);}
	.st50{fill:url(#SVGID_39_);}
	.st51{fill:url(#SVGID_40_);}
	.st52{fill:url(#SVGID_41_);}
	.st53{fill:url(#SVGID_42_);}
	.st54{fill:url(#SVGID_43_);}
	.st55{fill:url(#SVGID_44_);}
	.st56{fill:url(#SVGID_45_);}
	.st57{fill:url(#SVGID_46_);}
	.st58{fill:url(#SVGID_47_);}
	.st59{fill:url(#SVGID_48_);}
	.st60{fill:url(#SVGID_49_);}
	.st61{fill:url(#SVGID_50_);}
	.st62{fill:url(#SVGID_51_);}
	.st63{fill:url(#SVGID_52_);}
	.st64{fill:url(#SVGID_53_);}
	.st65{fill:url(#SVGID_54_);}
	.st66{fill:url(#SVGID_55_);}
	.st67{fill:url(#SVGID_56_);}
	.st68{fill:#053484;}
	.st69{fill:#00BC22;}
	.st70{fill:#CF8030;}
</style>
<g id="Background_xA0_Image_1_">
</g>
<g id="Layer_1_xA0_Image_1_">
</g>
<g id="_x34__xA0_Image_1_">
</g>
<g id="_x36__xA0_Image_1_">
</g>
<g id="_x35__xA0_Image_1_">
</g>
<g id="_x32__xA0_Image_1_">
</g>
<g id="_x31__xA0_Image_1_">
</g>
<g id="_x38__xA0_Image_1_">
</g>
<g id="_x33__xA0_Image_1_">
</g>
<g id="_x39__xA0_Image_1_">
</g>
<g id="GDT">
</g>
<g id="_x37__xA0_Image_1_">
</g>
<g id="GLOBAL_DIGITAL_TRANSFORMATION_copy_xA0_Image_1_">
</g>
<g id="Layer_14">
	<g>
		<g>
			<g>
				<path class="st39" d="M1294,1206.6c-0.9,0.6-1.8,1.1-2.7,1.7C1292.1,1207.7,1293,1207.2,1294,1206.6z"/>
				<path class="st39" d="M1296.9,1204.8c-0.8,0.5-1.5,1-2.3,1.4C1295.4,1205.7,1296.1,1205.2,1296.9,1204.8z"/>
				<path class="st39" d="M1324,1184.6c-0.9,0.8-1.7,1.6-2.6,2.3C1322.2,1186.2,1323.1,1185.4,1324,1184.6z"/>
				<path class="st39" d="M1315.2,1192.1c-0.7,0.5-1.3,1-2,1.5C1313.8,1193.1,1314.5,1192.6,1315.2,1192.1z"/>
				<path class="st39" d="M1303.7,1200.4c-2.1,1.4-4.1,2.7-6.1,3.9C1299.6,1203.1,1301.6,1201.8,1303.7,1200.4z"/>
				<path class="st39" d="M1321.3,1187c-1.8,1.6-3.6,3.1-5.5,4.5C1317.7,1190.1,1319.5,1188.6,1321.3,1187z"/>
				<path class="st39" d="M1312.8,1193.9c-2.7,2-5.8,4.1-8.9,6.3C1306.9,1198.2,1309.8,1196.1,1312.8,1193.9z"/>
				<path class="st39" d="M1294.6,451.6c-68-38-540-319-540-319s-472,281-540,319s-58,82-58,82s0,538,0,590c0,27,13,46.5,28.5,60.9
					c3.6,3.3,7.3,6.4,11.1,9.3c2.8,2,5.9,4.2,9.1,6.5c1.4,1-69.4,94.8-68.3,93.6c23.7-25.5,73.4-76.6,80.6-85.8
					c20.3-21.8,82.4-86.8,93.1-96.4c6.8-6.1,27.3-27.5,49.7-50.7c16.9-17.5,34.8-35.9,48.5-49.4c31.9-31.3,82.4-63.6,97.4-71.7
					c15-8.1,26.6-1.1,28.4,0.8c0.8,0.8,7.9,8.5,16.3,17.4c12.4,13.3,27.3,29.4,27.3,29.4c0.4,2.7,0.2,9-0.7,12.7
					c-3.3,13.7-14.2,29.1-20.9,41.7c-8.4,15.9-51.6,63.8-69.4,82.5c-17.8,18.8-83.4,81.6-106,105c-10,10.4-29,28.7-47.7,46.1
					l420.9,242l0.1,0l298.2-171.5H754.6H620.9c-8,0-14.5-6.5-14.5-14.5v-110.4c0-8,6.5-14.5,14.5-14.5h133.7h439.3
					c8,0,14.5,6.5,14.5,14.5v35.5l40.7-23.4c0.1,0,0.1-0.1,0.2-0.1c0.3-0.2,0.7-0.4,1-0.6c4.4-2.5,20.6-12,34.3-20.3
					c0.7-0.4,1.4-0.9,2.1-1.3c0,0,0,0,0,0c0.8-0.5,1.5-0.9,2.3-1.4c0.7-0.4,1.4-0.9,2.1-1.3c0,0,0.1,0,0.1-0.1
					c0.9-0.5,1.8-1.1,2.7-1.7c0.2-0.1,0.4-0.3,0.6-0.4c0.8-0.5,1.5-1,2.3-1.4c0.2-0.1,0.5-0.3,0.7-0.4c2-1.3,4-2.6,6.1-3.9
					c0.1-0.1,0.2-0.1,0.3-0.2c3.1-2.2,6.1-4.3,8.9-6.3c0.1-0.1,0.2-0.2,0.4-0.3c0.7-0.5,1.3-1,2-1.5c0.2-0.2,0.5-0.4,0.7-0.6
					c1.8-1.5,3.7-3,5.5-4.5c0,0,0,0,0,0c0.9-0.8,1.7-1.5,2.6-2.3c0,0,0.1-0.1,0.1-0.1c15.5-14.4,28.5-33.9,28.5-60.9
					c0-52,0-590,0-590S1362.6,489.6,1294.6,451.6z M1046.1,749.2c30.5,15,42.2,32.3,48.3,45.5s8,23.9,7,33.8
					c-0.9,9.8-2.8,23.9-20.6,42.7c-10.3,10.9-59.1,59.8-99.4,99.6c-29.2,28.9-53.9,53-56.2,54.6c-5.6,3.8-29.8,14.1-54.8,4.2
					s-49.8-42.2-54-58.1c-4.2-15.9-7.5-38.4,6.1-53c2.7-2.9,10.6-10.9,21.7-21.9c44.9-44.8,141-139.4,141-139.4
					S1015.7,734.2,1046.1,749.2z M792,554.9c10.3,23.4,23.4,42.7,60.9,88.6c37.5,45.9,100.8,81.1,106.4,83.9c5.6,2.8,9.4,4.2,7,6.1
					c-2.3,1.9-26.3,28.1-37,38c-10.8,9.8-100.3,98.5-111.1,110.2c-0.2,0.2-0.4,0.4-0.6,0.6c-10.5,11.3-17.7,18.1-20.5,13.9
					c-5-12.3-11.6-24.1-18.9-35.2c-7.3-11-15.4-21.5-23.7-31.2c-20-23.3-41.1-42.6-54.9-56.9c-25.3-26.3-78.3-49.2-78.3-49.2
					s87.3-87.6,133.2-133.8c15.1-15.2,25.7-25.9,27.2-27.5C787.8,555.9,792,554.9,792,554.9z M490.1,647.3
					c-4.2-15.9-7.5-38.4,6.1-53S658.9,433,658.9,433s30.5-23,60.9-8c16.2,8,27.1,16.6,34.7,25c6.6,7.3,10.7,14.4,13.6,20.5
					c6.1,13.1,8,23.9,7,33.8c-0.9,9.8-2.8,23.9-20.6,42.6c0,0,0,0,0,0c-17.8,18.8-150,150.5-155.6,154.2s-29.8,14.1-54.8,4.2
					C519.2,695.6,494.3,663.2,490.1,647.3z M595.5,966.4c-6.9,6.9-11.6,4.4-13.1,2.5c-0.8-1-9.3-9.4-18-17.9
					c-8-7.9-16.2-15.8-18.6-18c-5-4.7,3.1-11.3,3.1-11.3S667,803.9,673,797.3c5.9-6.6,9.4-5.3,13.1-3.1c3.8,2.2,25.6,25.9,32.2,32.5
					s4.7,9.7,1.9,12.5c-1.4,1.4-28.7,29.3-57.4,58.6C631.7,929.5,599,962.8,595.5,966.4z M1118.7,1169c0,5-4,9-9,9H754.6h-49.5
					c-4.9,0-9-4-9-9v-82c0-5,4.1-9,9-9h49.5h355.1c5,0,9,4,9,9V1169z"/>
				<path class="st39" d="M1315.9,1191.5c-0.2,0.2-0.5,0.4-0.7,0.6C1315.4,1191.9,1315.6,1191.7,1315.9,1191.5z"/>
				<path class="st39" d="M1294.6,1206.2c-0.2,0.1-0.4,0.3-0.6,0.4C1294.2,1206.5,1294.4,1206.3,1294.6,1206.2z"/>
				<path class="st39" d="M1303.8,1200.3C1303.9,1200.2,1303.9,1200.2,1303.8,1200.3c0,0-0.1,0.1-0.2,0.1
					C1303.7,1200.3,1303.8,1200.3,1303.8,1200.3z"/>
				<path class="st39" d="M1313,1193.8c0.1-0.1,0.1-0.1,0.2-0.2c-0.1,0.1-0.2,0.2-0.4,0.3C1312.9,1193.9,1312.9,1193.8,1313,1193.8z
					"/>
				<path class="st39" d="M1297.6,1204.3c-0.2,0.1-0.5,0.3-0.7,0.4C1297.1,1204.6,1297.4,1204.5,1297.6,1204.3z"/>
				<path class="st39" d="M1324.1,1184.5C1324.1,1184.5,1324.1,1184.5,1324.1,1184.5C1324,1184.6,1324,1184.6,1324.1,1184.5
					C1324,1184.6,1324,1184.6,1324.1,1184.5z"/>
				<path class="st39" d="M1321.4,1187C1321.3,1187,1321.3,1187,1321.4,1187C1321.3,1187,1321.3,1187,1321.4,1187z"/>
			</g>
		</g>
		<path class="st70" d="M1443.1,1000.6h54c0-129.8,0-547.1,0-547.1s10-44-58-82s-550-309-550-309s-1-1.5-48.2,26.5l4.2,2.5
			c0,0,472,281,540,319s58,82,58,82S1443.1,836,1443.1,1000.6z"/>
		<path class="st70" d="M1443.1,658.9h54c0,129.8,0,547.1,0,547.1s10,44-58,82s-550,309-550,309s-1,1.5-48.2-26.5l4.2-2.5
			c0,0,472-281,540-319s58-82,58-82S1443.1,823.5,1443.1,658.9z"/>
	</g>
</g>
</svg>
